<svg width="49" height="51" viewBox="0 0 49 51" fill="none" xmlns="http://www.w3.org/2000/svg">
<path d="M0.289856 27.8593C0.292757 27.724 0.298239 27.5887 0.298561 27.4533C0.303719 24.8169 0.30114 22.1804 0.31468 19.544C0.324351 17.6736 0.381091 15.8039 0.508109 13.9378C0.54744 13.3562 0.617721 12.7773 0.695738 12.199C0.749575 11.7991 0.806318 11.4016 0.900453 11.0097C2.07263 6.13206 4.8074 2.73263 9.41133 1.10752C10.7302 0.64229 12.0929 0.396986 13.4775 0.289052C16.231 0.0718298 18.9903 0.0731865 21.7486 0.0725098C24.7863 0.0725098 27.8241 0.0797243 30.862 0.0941607C32.4613 0.103635 34.0603 0.163866 35.6545 0.301575C37.2548 0.439961 38.8138 0.782034 40.3178 1.39174C42.7459 2.37669 44.6735 4.02108 46.1332 6.27146C47.081 7.73246 47.6607 9.35621 48.0394 11.0737C48.3973 12.6978 48.5034 14.3449 48.5533 16.0004C48.7303 21.8692 48.6858 27.7389 48.5975 33.6083C48.5759 35.0493 48.5217 36.4914 48.3554 37.9253C48.1478 39.7159 47.7196 41.4418 46.974 43.072C46.4556 44.2058 45.8089 45.2503 44.9575 46.1459C44.8749 46.2325 44.8105 46.3374 44.7376 46.4342C44.6818 46.4866 44.6232 46.5357 44.5706 46.5919C43.2572 47.9852 41.7037 48.9742 39.9506 49.634C38.3106 50.2508 36.6113 50.5411 34.8811 50.6447C33.1452 50.7486 31.4074 50.8028 29.6679 50.8071C24.4843 50.8142 19.2994 50.9285 14.1184 50.6612C13.0407 50.6054 11.9675 50.4795 10.9114 50.242C9.48322 49.9209 8.11503 49.43 6.86097 48.6179C6.00118 48.062 5.18265 47.455 4.47534 46.6917C3.94728 46.1205 3.41922 45.5511 2.99045 44.8873C2.54911 44.2045 2.15226 43.498 1.83761 42.7424C1.5167 41.9866 1.25324 41.2053 1.04971 40.4058C0.765589 39.2607 0.58363 38.0904 0.506181 36.9099C0.3653 34.7739 0.315648 32.6342 0.307911 30.4931C0.30501 29.6171 0.295981 28.7374 0.289856 27.8593ZM42.2678 42.3543C42.4013 42.3205 42.4352 42.1879 42.5009 42.0911C42.9503 41.4327 43.2137 40.6782 43.4806 39.9301C43.8675 38.8456 44.02 37.7071 44.1045 36.5591C44.2186 35.0087 44.2656 33.4543 44.2747 31.9003C44.2956 28.7123 44.2914 25.5244 44.2953 22.3368C44.2985 19.6668 44.2705 16.9976 44.1061 14.332C44.02 12.9373 43.7576 11.5775 43.2447 10.2928C42.3175 7.971 40.7259 6.36146 38.4231 5.57343C37.9276 5.40426 37.4289 5.23746 36.9218 5.11396C36.4843 5.00771 36.0346 4.9485 35.5874 4.89741C34.3811 4.76207 33.1696 4.7235 31.9561 4.69643C28.0395 4.60846 24.1223 4.62165 20.205 4.64805C17.9628 4.66327 15.7191 4.67376 13.4827 4.88692C12.5188 4.97896 11.5716 5.16674 10.6538 5.49596C8.11342 6.41041 6.39513 8.19657 5.4989 10.8544C5.15847 11.8695 4.97052 12.9184 4.8809 13.9883C4.74872 15.5599 4.70488 17.1349 4.68747 18.7133C4.66942 20.2227 4.66523 21.7321 4.66136 23.2415C4.65942 24.1087 4.66974 24.9756 4.67457 25.8428C4.66909 25.9781 4.6591 26.1134 4.65942 26.2471C4.66071 27.4408 4.66307 28.6345 4.66651 29.8282C4.67554 32.1818 4.68973 34.5354 4.87896 36.8825C4.96859 37.993 5.16363 39.0818 5.52728 40.1364C6.28326 42.328 7.64468 43.9487 9.64377 44.9627C10.6657 45.4811 11.7576 45.7626 12.8795 45.9253C14.1468 46.1094 15.4241 46.1564 16.6991 46.1781C22.363 46.2738 28.0273 46.332 33.6906 46.1293C34.6451 46.0955 35.5981 46.0346 36.5394 45.8563C37.9125 45.5961 39.2255 45.1694 40.3829 44.3107C41.0276 43.8313 41.6137 43.2848 42.1147 42.6413C42.1805 42.556 42.2637 42.4782 42.2678 42.3543V42.3543Z" fill="url(#paint0_linear_21_10)"/>
<path d="M34.4944 33.2135C34.144 33.669 33.7942 34.1251 33.4021 34.5426C31.4492 36.6244 29.0976 37.8909 26.3475 38.3423C25.2222 38.5286 24.077 38.541 22.9483 38.3792C22.6465 38.3358 22.3241 38.37 22.0417 38.2716C21.4131 38.0527 20.7629 37.9136 20.1432 37.6625C17.5365 36.6015 15.4719 34.8464 13.9815 32.3639C12.6843 30.2029 12.0705 27.8337 12.0924 25.2812C12.0924 25.2027 12.0898 25.1239 12.0882 25.0444C12.1395 23.8239 12.3239 22.6285 12.683 21.4636C13.1843 19.8364 13.9651 18.3744 15.0041 17.0589C15.3926 16.5666 15.8423 16.1413 16.2714 15.692C16.9404 14.9912 17.7221 14.4587 18.5397 13.9884C19.5062 13.4349 20.5413 13.0249 21.6152 12.7703C22.9731 12.4435 24.3468 12.3257 25.7343 12.4813C27.5261 12.6827 29.2031 13.2403 30.7654 14.2069C32.1326 15.0528 33.3122 16.1109 34.2813 17.4213C36.1962 20.0077 37.057 22.9496 36.9026 26.2161C36.8291 27.7657 36.4583 29.2447 35.8803 30.6712C35.5131 31.5769 35.0337 32.4113 34.4944 33.2135ZM31.4089 29.8033C31.6723 29.3902 31.8583 28.9347 32.0298 28.4766C32.5349 27.1276 32.6684 25.7285 32.4869 24.2942C31.9885 20.3541 28.8279 17.2433 25.0512 17.0156C22.5276 16.8637 20.3625 17.7478 18.6264 19.6808C17.1148 21.3641 16.402 23.3905 16.4571 25.7085C16.4552 25.7647 16.4491 25.8212 16.4523 25.8777C16.5619 27.7918 17.1938 29.49 18.3792 30.953C20.6245 33.7194 24.3207 34.6718 27.5267 33.2995C29.1867 32.5862 30.4898 31.4264 31.4089 29.8026V29.8033Z" fill="url(#paint1_linear_21_10)"/>
<path d="M37.3778 8.87037C39.1187 8.86733 40.2641 10.3831 40.2703 11.9257C40.2764 13.5911 38.962 14.9573 37.3759 14.9617C36.9939 14.9624 36.6154 14.8839 36.2624 14.7308C35.9093 14.5776 35.5885 14.3529 35.3183 14.0693C35.0482 13.7858 34.834 13.4491 34.6881 13.0785C34.5422 12.7079 34.4674 12.3108 34.468 11.9098C34.4687 10.2123 35.7579 8.86564 37.3778 8.87037Z" fill="url(#paint2_linear_21_10)"/>
<defs>
<linearGradient id="paint0_linear_21_10" x1="24.4824" y1="0.0725098" x2="24.4824" y2="50.8374" gradientUnits="userSpaceOnUse">
<stop stop-color="white"/>
<stop offset="1" stop-color="white" stop-opacity="0"/>
</linearGradient>
<linearGradient id="paint1_linear_21_10" x1="24.5042" y1="12.4133" x2="24.5042" y2="38.4919" gradientUnits="userSpaceOnUse">
<stop stop-color="white"/>
<stop offset="1" stop-color="white" stop-opacity="0"/>
</linearGradient>
<linearGradient id="paint2_linear_21_10" x1="37.3691" y1="8.87036" x2="37.3691" y2="14.9617" gradientUnits="userSpaceOnUse">
<stop stop-color="white"/>
<stop offset="1" stop-color="white" stop-opacity="0"/>
</linearGradient>
</defs>
</svg>
