<svg width="30" height="50" viewBox="0 0 30 50" fill="none" xmlns="http://www.w3.org/2000/svg">
<path d="M9.03335 50C9.02239 49.7707 9.00111 49.5439 9.00111 49.3158C8.99961 42.2168 9.00401 35.1173 9.01432 28.0173C9.01626 27.4655 8.86377 27.3158 8.23835 27.3247C5.81372 27.3591 3.38812 27.3285 0.963166 27.348C0.511831 27.3517 0.389973 27.2442 0.392874 26.842C0.413077 24.0941 0.413077 21.3462 0.392874 18.5981C0.38965 18.1865 0.535689 18.0924 0.973162 18.0956C3.37684 18.1128 5.78083 18.0858 8.18419 18.1162C8.80767 18.124 9.02658 18.0148 9.01819 17.4047C8.98305 14.8481 8.96758 12.2897 9.03915 9.73415C9.1681 5.15885 13.3849 0.982862 18.494 0.278264C19.3423 0.163382 20.1991 0.105886 21.0572 0.106271C23.6543 0.0996781 26.2511 0.111715 28.8479 0.0965224C29.2944 0.0936558 29.4946 0.159587 29.4898 0.620528C29.4643 3.06283 29.4704 5.50571 29.4859 7.94829C29.4882 8.31349 29.3856 8.43933 28.9504 8.43417C27.0835 8.41267 25.216 8.42184 23.349 8.42586C20.9276 8.4313 19.4131 9.75307 19.386 11.9179C19.3625 13.7877 19.3953 15.6584 19.3702 17.5283C19.3641 17.9732 19.4991 18.1159 20.015 18.1122C22.9122 18.0916 25.8098 18.1099 28.707 18.0947C29.1548 18.0922 29.3099 18.1836 29.2441 18.6053C28.8179 21.3437 28.4011 24.0832 28.0161 26.8262C27.9578 27.2428 27.8137 27.3514 27.3524 27.3474C24.9274 27.3259 22.5018 27.3551 20.0772 27.3244C19.5011 27.317 19.3663 27.4612 19.3679 27.9608C19.3866 35.0597 19.3903 42.1587 19.3789 49.2578C19.3789 49.5044 19.3512 49.7509 19.3367 49.9974L9.03335 50Z" fill="url(#paint0_linear_21_7)"/>
<defs>
<linearGradient id="paint0_linear_21_7" x1="14.9413" y1="0.0964355" x2="14.9413" y2="50" gradientUnits="userSpaceOnUse">
<stop stop-color="white"/>
<stop offset="1" stop-color="white" stop-opacity="0"/>
</linearGradient>
</defs>
</svg>
