<svg width="107" height="106" viewBox="0 0 107 106" fill="none" xmlns="http://www.w3.org/2000/svg">
<path d="M68.0095 39.6331C68.4307 39.2759 69.0456 39.3409 69.3829 39.7782C69.7202 40.2155 69.6521 40.8596 69.2309 41.2168L68.0095 39.6331ZM29.0892 75.2555C28.6679 75.6127 28.053 75.5477 27.7157 75.1104C27.3784 74.6731 27.4465 74.029 27.8677 73.6718L29.0892 75.2555ZM69.2309 41.2168L29.0892 75.2555L27.8677 73.6718L68.0095 39.6331L69.2309 41.2168Z" fill="url(#paint0_linear_5_38)"/>
<ellipse rx="4.71701" ry="6.15759" transform="matrix(0.737432 -0.678182 0.63853 0.767368 29.1286 74.542)" fill="url(#paint1_linear_5_38)"/>
<ellipse rx="11.6167" ry="6.15759" transform="matrix(0.737432 -0.678182 0.63853 0.767368 76.9085 33.7696)" fill="url(#paint2_linear_5_38)"/>
<path d="M37.3702 41.9391C36.9449 41.5867 36.8697 40.9435 37.2022 40.5025C37.5346 40.0614 38.1488 39.9896 38.5741 40.342L37.3702 41.9391ZM78.9151 73.7755C79.3403 74.1279 79.4155 74.7711 79.0831 75.2121C78.7506 75.6532 78.1364 75.725 77.7112 75.3726L78.9151 73.7755ZM38.5741 40.342L78.9151 73.7755L77.7112 75.3726L37.3702 41.9391L38.5741 40.342Z" fill="url(#paint3_linear_5_38)"/>
<ellipse rx="4.69589" ry="6.1607" transform="matrix(-0.793732 -0.605189 0.573187 -0.821492 78.2444 73.8929)" fill="url(#paint4_linear_5_38)"/>
<ellipse rx="11.5647" ry="6.1607" transform="matrix(-0.793732 -0.605189 0.573187 -0.821492 29.9889 34.1547)" fill="url(#paint5_linear_5_38)"/>
<defs>
<linearGradient id="paint0_linear_5_38" x1="48.5493" y1="57.4443" x2="49.1954" y2="58.2062" gradientUnits="userSpaceOnUse">
<stop stop-color="white"/>
<stop offset="1" stop-color="#1E1E1E"/>
</linearGradient>
<linearGradient id="paint1_linear_5_38" x1="4.71701" y1="0" x2="4.71701" y2="12.3152" gradientUnits="userSpaceOnUse">
<stop stop-color="white"/>
<stop offset="1" stop-color="#1E1E1E"/>
</linearGradient>
<linearGradient id="paint2_linear_5_38" x1="11.6167" y1="0" x2="11.6167" y2="12.3152" gradientUnits="userSpaceOnUse">
<stop stop-color="white"/>
<stop offset="1" stop-color="#1E1E1E"/>
</linearGradient>
<linearGradient id="paint3_linear_5_38" x1="58.1426" y1="57.8573" x2="58.78" y2="57.0882" gradientUnits="userSpaceOnUse">
<stop stop-color="white"/>
<stop offset="1" stop-color="#1E1E1E"/>
</linearGradient>
<linearGradient id="paint4_linear_5_38" x1="4.69589" y1="0" x2="4.69589" y2="12.3214" gradientUnits="userSpaceOnUse">
<stop stop-color="white"/>
<stop offset="1" stop-color="#1E1E1E"/>
</linearGradient>
<linearGradient id="paint5_linear_5_38" x1="11.5647" y1="0" x2="11.5647" y2="12.3214" gradientUnits="userSpaceOnUse">
<stop stop-color="white"/>
<stop offset="1" stop-color="#1E1E1E"/>
</linearGradient>
</defs>
</svg>
