<svg width="48" height="39" viewBox="0 0 48 39" fill="none" xmlns="http://www.w3.org/2000/svg">
<path d="M46.1592 0.0524339C46.1592 0.494768 46.0568 0.91649 45.9805 1.34051C45.2892 5.16766 43.9741 8.61062 42.1596 11.7349C40.413 14.7429 38.3481 17.3076 35.8683 19.2834C35.8293 19.315 35.7934 19.3535 35.7277 19.4153C41.9458 23.6678 46.0069 30.1852 48 38.9183C47.8516 39.0277 47.7338 38.9929 47.622 38.9929C45.0224 38.9953 42.4228 38.9953 39.8233 38.9929C39.427 38.9929 39.4973 39.0479 39.3661 38.5574C38.5194 35.3659 37.2211 32.5397 35.363 30.1687C33.2992 27.5325 30.8472 25.8644 27.9944 25.2123C27.7641 25.1597 27.5313 25.1208 27.2985 25.0928C27.0738 25.0672 27.071 25.0795 27.0625 25.3882C27.0597 25.4949 27.0625 25.6016 27.0625 25.7087V38.3335C27.0625 38.4402 27.0646 38.5469 27.0625 38.6541C27.0551 38.9837 27.0548 38.9888 26.8122 38.9938C25.7924 39.0149 24.7726 38.9828 23.7578 38.8862C22.2155 38.7392 20.6869 38.4613 19.1801 37.9983C13.1456 36.1448 8.40229 31.8931 5.04411 25.0791C3.34708 21.6361 2.1958 17.8873 1.39863 13.9429C0.844091 11.1955 0.480142 8.40686 0.258256 5.58298C0.123225 3.86814 0.0472709 2.14871 0.00261238 0.427453C-0.00793689 0.00664097 -0.00160817 0.00206014 0.322606 0.00206014C2.84036 0.00206014 5.358 0.00206014 7.87553 0.00206014C7.9223 0.00206014 7.96942 0.00709707 8.01618 0.00206014C8.17091 -0.015798 8.21416 0.083116 8.21838 0.272688C8.23315 0.943057 8.25143 1.61342 8.28203 2.28287C8.47895 6.61051 9.02575 10.8456 10.2431 14.9059C11.1008 17.7728 12.2584 20.4053 13.8921 22.649C15.2586 24.5264 16.8435 25.9761 18.7469 26.788C18.9227 26.8631 19.0985 26.9601 19.2905 26.9606C19.3535 26.7825 19.3232 26.598 19.3232 26.4189C19.3249 17.8195 19.3257 9.22025 19.3257 0.621145C19.3257 -0.0620453 19.2487 0.00435144 19.7846 0.00389354C22.0796 0.00175666 24.3748 0.00175666 26.6701 0.00389354C27.1047 0.00389354 27.0594 -0.0501341 27.0597 0.524076C27.0597 5.3119 27.0597 10.0996 27.0597 14.8871C27.0597 15.4329 27.0597 15.4283 27.4855 15.3354C29.0078 15.0016 30.3514 14.1339 31.5945 12.9813C33.5707 11.1497 35.1204 8.80433 36.381 6.12422C37.2302 4.33195 37.8975 2.40402 38.3664 0.388538C38.4543 0.00756345 38.4564 0.00343519 38.7392 0.00343519C41.128 0.00343519 43.5168 0.00343519 45.9056 0.00343519C45.9865 0.00297729 46.0695 -0.0112146 46.1592 0.0524339Z" fill="url(#paint0_linear_21_16)"/>
<defs>
<linearGradient id="paint0_linear_21_16" x1="24" y1="0" x2="24" y2="39" gradientUnits="userSpaceOnUse">
<stop stop-color="white"/>
<stop offset="1" stop-color="white" stop-opacity="0"/>
</linearGradient>
</defs>
</svg>
